# xmcd
#
# Track frame offsets:
#       182
#       11835
#       36650
#       59427
#       91517
#       117947
#       143457
#       165107
#       194495
#       251625
#       269617
#
# Disc length: 4286 seconds
#
# Revision: 0
# Processed by: cddbd v1.4b42PL0 Copyright (c) Steve Scherf et al.
# Submitted via: CD-DA_X-Tractor v0.21
#
DISCID=9310bc0b
DTITLE=Stevie Ray Vaughan - Brotherly Love
DYEAR=1900
DGENRE=
TTITLE0=The House Is Rockin
TTITLE1=Tightrope
TTITLE2=Look At Little Sister
TTITLE3=Texas Flood
TTITLE4=Leave My Girl Alone
TTITLE5=Wall Of Denial
TTITLE6=Superstition
TTITLE7=Cold Shot
TTITLE8=Life Without You
TTITLE9=Crossfire
TTITLE10=Voodoo Chile
EXTD=
EXTT0=
EXTT1=
EXTT2=
EXTT3=
EXTT4=
EXTT5=
EXTT6=
EXTT7=
EXTT8=
EXTT9=
EXTT10=
PLAYORDER=
